<?xml version="1.0" encoding="UTF-8"?>
<svg xmlns:xodm="http://www.corel.com/coreldraw/odm/2003" xmlns="http://www.w3.org/2000/svg" xmlns:xlink="http://www.w3.org/1999/xlink" version="1.1" id="Layer_1" x="0px" y="0px" viewBox="0 0 2498 627" style="enable-background:new 0 0 2498 627;" xml:space="preserve">
<style type="text/css">
	.st0{fill:#88AAF1;}
	.st1{fill:#F0CDC2;stroke:#1616B4;stroke-width:3.1192;stroke-linejoin:round;stroke-miterlimit:18.8679;}
	.st2{fill:#C9B3F5;stroke:#1616B4;stroke-width:3.1192;stroke-linejoin:round;stroke-miterlimit:18.8679;}
	.st3{fill:#88AAF1;stroke:#1616B4;stroke-width:3.1192;stroke-linejoin:round;stroke-miterlimit:18.8679;}
	.st4{fill:#B8FAF6;stroke:#1616B4;stroke-width:3.1192;stroke-linejoin:round;stroke-miterlimit:18.8679;}
</style>
<g id="Layer_x0020_1">
	<g id="_2082168131168">
		<path class="st0" d="M696.7,353.4c-3.2-37.8-32.3-72.4-72.4-72.4c-40.1,0-68.5,34.6-72.4,72.4H696.7L696.7,353.4z M713.1,360.5    c-0.1,4.5-3.8,8.1-8.3,8.1H551.9c3.9,37.8,32.3,72.4,72.4,72.4c27.4,0,47.7-10.4,62.9-32.3c1.4-2.3,3.9-3.8,6.7-3.9    c4.1-0.1,7.5,3.1,7.6,7.2v0.4c0,1.4-0.4,2.7-1.2,3.9c-15.4,26.7-46.1,39.9-76.1,39.9c-51.4,0-88.3-46.1-88.3-95.2    s36.7-95.2,88.3-95.2C676,265.8,712.9,311.4,713.1,360.5L713.1,360.5L713.1,360.5z"></path>
		<path class="st0" d="M898.9,269.5c4.2,0.1,7.5,3.5,7.6,7.6c0.1,4.1-3.1,7.5-7.2,7.6h-41.5v161.2c0,4.2-3.4,7.6-7.6,7.6    c-4.1-0.1-7.5-3.5-7.6-7.6V284.7h-39.4c-4.1,0.1-7.5-3.1-7.6-7.2v-0.4c0-4.2,3.4-7.6,7.6-7.6h39.4v-58.8c0-4,2.9-7.4,6.9-8.1    c4.1-0.6,7.9,2.3,8.5,6.5c0,0.4,0.1,0.7,0.1,1.1v59.2L898.9,269.5L898.9,269.5z"></path>
		<path class="st0" d="M1149.1,347.4v97.5c-0.1,4.1-3.5,7.5-7.6,7.6c-4.1,0.1-7.5-3.1-7.6-7.2v-97.9c0-33-18.7-65.7-55.3-65.7    c-47,0-67.3,41-64.6,83.2c0,1.2,0.5,6,0.5,6.7v73.1c0,4-2.9,7.4-6.9,8.1c-4.1,0.6-7.9-2.4-8.5-6.5c0-0.4-0.1-0.8-0.1-1.1V124.4    c0-4.2,3.4-7.6,7.6-7.6c4.1,0.1,7.5,3.5,7.6,7.6v181.2c13.1-23.5,36.7-39.4,64.1-39.4C1123.5,266.2,1149.1,305.7,1149.1,347.4    L1149.1,347.4z"></path>
		<path class="st0" d="M1407.1,353.4c-3.2-37.8-32.3-72.4-72.4-72.4c-40.1,0-68.5,34.6-72.4,72.4H1407.1L1407.1,353.4z     M1423.7,360.5c-0.1,4.5-3.8,8.1-8.3,8.1h-152.9c3.9,37.8,32.3,72.4,72.4,72.4c27.4,0,47.7-10.4,62.9-32.3    c1.4-2.3,3.9-3.8,6.7-3.9c4.1-0.1,7.5,3.1,7.6,7.2v0.4c0,1.4-0.4,2.7-1.2,3.9c-15.4,26.7-46.1,39.9-76.1,39.9    c-51.4,0-88.3-46.1-88.3-95.2s36.7-95.2,88.3-95.2C1386.1,265.8,1423.4,311.4,1423.7,360.5L1423.7,360.5L1423.7,360.5z"></path>
		<path class="st0" d="M1611.6,276.6c0.3,4.3-2.9,8-7.1,8.3c-45,6.7-65.2,43.3-65.2,86V444c0,4-2.9,7.4-6.9,8.1    c-4.1,0.6-7.9-2.4-8.5-6.5c0-0.4-0.1-0.8-0.1-1.1V277.8c0-4,2.9-7.4,6.9-8.1c4.1-0.5,7.9,2.4,8.5,6.5c0,0.4,0.1,0.7,0.1,1.1v33.9    c12.7-21.4,37.8-41.7,64.1-41.7C1607.2,269.5,1611.6,272.2,1611.6,276.6L1611.6,276.6z"></path>
		<path class="st0" d="M1846.5,353.4c-3.2-37.8-32.3-72.4-72.4-72.4s-68.5,34.6-72.4,72.4H1846.5z M1862.9,360.5    c-0.1,4.5-3.8,8.1-8.3,8.1h-152.9c3.9,37.8,32.3,72.4,72.4,72.4c27.4,0,47.7-10.4,62.9-32.3c1.4-2.3,3.9-3.8,6.7-3.9    c4.1-0.1,7.5,3.1,7.6,7.2v0.4c0,1.4-0.4,2.7-1.2,3.9c-15.4,26.7-46.1,39.9-76.1,39.9c-51.4,0-88.3-46.1-88.3-95.2    s36.7-95.2,88.3-95.2S1862.6,311.4,1862.9,360.5L1862.9,360.5L1862.9,360.5z"></path>
		<path class="st0" d="M2110,278.5v167.4c-0.1,4.1-3.5,7.5-7.6,7.6c-4.1,0.1-7.5-3.1-7.6-7.2V414c-12.7,25.1-35,43.3-63.6,43.3    c-45.4,0-70.5-39.4-70.5-81.1v-98c0-4.2,3.4-7.6,7.6-7.6c4.1,0.1,7.5,3.5,7.6,7.6v98c0,33,18.7,65.7,55.3,65.7    c51.4,0,63.6-48.2,63.6-101.4V278c0.1-4.3,3.6-7.7,7.8-7.6c0.9,0,1.7,0.2,2.6,0.5C2108.1,272.2,2110,275.2,2110,278.5L2110,278.5z    "></path>
		<path class="st0" d="M2497.1,346.7v98c-0.1,4.1-3.5,7.5-7.6,7.6c-4.1,0.1-7.5-3.1-7.6-7.2v-98.4c0-33-18.7-65.2-55.3-65.2    c-46.1,0-63.6,49.3-63.6,87.6v75.6c-0.1,4.1-3.5,7.5-7.6,7.6c-4.1,0.1-7.5-3.1-7.6-7.2v-98.4c0-33-18.7-65.2-55.3-65.2    c-46.6,0-65.7,36.7-64.1,85.5c0,1.2,0.5,3.2,0,3.9v73.6c0,4-2.9,7.4-6.9,8.1c-4.1,0.6-7.9-2.4-8.5-6.5c0-0.4-0.1-0.8-0.1-1.1    V277.8c0-4,2.9-7.4,6.9-8.1c4.1-0.5,7.9,2.4,8.5,6.5c0,0.4,0.1,0.7,0.1,1.1v27.9c13.1-23.5,36.7-39,64.1-39    c31.1,0,55.3,19.8,65.2,48.6c12.7-28.6,37.3-48.6,68.9-48.6C2471.5,266.2,2497.1,305.2,2497.1,346.7L2497.1,346.7L2497.1,346.7z"></path>
		<g>
			<polygon class="st1" points="198.3,625.4 198.3,468.9 4.7,355.7    "></polygon>
			<polygon class="st2" points="198.9,625.4 198.9,468.9 392.6,355.7    "></polygon>
			<polygon class="st3" points="198.3,430 198.3,230.2 2.4,317.9    "></polygon>
			<polygon class="st2" points="198.9,430 198.9,230.2 394.8,317.9    "></polygon>
			<polygon class="st1" points="2.4,317.9 198.3,1.6 198.3,230.2    "></polygon>
			<polygon class="st4" points="394.8,317.9 198.9,1.6 198.9,230.2    "></polygon>
		</g>
	</g>
</g>
</svg>
